<svg width="27" height="30" viewBox="0 0 27 30" fill="none" xmlns="http://www.w3.org/2000/svg">
<path d="M25.43 22.9222C25.43 22.462 25.0487 22.0807 24.5886 22.0807H0.841434C0.381275 22.0807 0 22.462 0 22.9222V24.605C0 25.0652 0.381275 25.4465 0.841434 25.4465H24.5886C25.0487 25.4465 25.43 25.0652 25.43 24.605V22.9222ZM25.43 13.8818C25.43 13.4216 25.0487 13.0404 24.5886 13.0404H0.841434C0.381275 13.0404 0 13.4216 0 13.8818V15.5647C0 16.0248 0.381275 16.4061 0.841434 16.4061H24.5886C25.0487 16.4061 25.43 16.0248 25.43 15.5647V13.8818ZM25.43 4.84143C25.43 4.38127 25.0487 4 24.5886 4H0.841434C0.381275 4 0 4.38127 0 4.84143V6.5243C0 6.98446 0.381275 7.36573 0.841434 7.36573H24.5886C25.0487 7.36573 25.43 6.98446 25.43 6.5243V4.84143Z" fill="#2A86E5"/>
</svg>
